<svg width="24" height="24" viewBox="0 0 24 24" fill="none" xmlns="http://www.w3.org/2000/svg">
<path d="M15 5V7H18.325C18.6583 7 18.8917 7.15 19.025 7.45C19.1583 7.75 19.1167 8.01667 18.9 8.25L12.75 15.15C12.55 15.3833 12.3 15.5 12 15.5C11.7 15.5 11.45 15.3833 11.25 15.15L5.10001 8.25C4.88334 8.01667 4.84167 7.75 4.97501 7.45C5.10834 7.15 5.34167 7 5.67501 7H9.00001V5C9.00001 4.71667 9.09584 4.47917 9.28751 4.2875C9.47917 4.09583 9.71667 4 10 4H14C14.2833 4 14.5208 4.09583 14.7125 4.2875C14.9042 4.47917 15 4.71667 15 5ZM13 6H11V8C11 8.28333 10.9042 8.52083 10.7125 8.7125C10.5208 8.90417 10.2833 9 10 9H8.45001L12 13L15.55 9H14C13.7167 9 13.4792 8.90417 13.2875 8.7125C13.0958 8.52083 13 8.28333 13 8V6ZM12 18L17.025 12.325C17.125 12.225 17.2417 12.1458 17.375 12.0875C17.5083 12.0292 17.6417 12 17.775 12C18.2083 12 18.5125 12.1917 18.6875 12.575C18.8625 12.9583 18.8083 13.3167 18.525 13.65L12.75 20.15C12.55 20.3833 12.3 20.5 12 20.5C11.7 20.5 11.45 20.3833 11.25 20.15L5.47501 13.65C5.19167 13.3167 5.13751 12.9583 5.31251 12.575C5.48751 12.1917 5.79167 12 6.22501 12C6.35834 12 6.49167 12.025 6.62501 12.075C6.75834 12.125 6.87501 12.2083 6.97501 12.325L12 18Z" fill="white"/>
</svg>
