<svg width="1024" height="1024" viewBox="0 0 1024 1024" fill="none" xmlns="http://www.w3.org/2000/svg">
<g clip-path="url(#clip0_2002_128)">
<rect width="1024" height="1024" rx="128" fill="#111111"/>
<path d="M736 288H960V736H736V960H288V736H64V288H288V64H736V288ZM512 281C388.288 281 288 381.288 288 505C288 628.712 388.288 729 512 729C635.712 729 736 628.712 736 505C736 381.288 635.712 281 512 281Z" fill="#EEEEEE"/>
<g filter="url(#filter0_f_2002_128)">
<circle cx="512" cy="505" r="224" fill="black"/>
</g>
<g filter="url(#filter1_f_2002_128)">
<circle cx="512" cy="505" r="224" fill="black"/>
</g>
<g filter="url(#filter2_f_2002_128)">
<circle cx="512" cy="505" r="224" fill="black"/>
</g>
<g filter="url(#filter3_f_2002_128)">
<circle cx="512" cy="505" r="224" fill="black"/>
</g>
</g>
<defs>
<filter id="filter0_f_2002_128" x="232" y="225" width="560" height="560" filterUnits="userSpaceOnUse" color-interpolation-filters="sRGB">
<feFlood flood-opacity="0" result="BackgroundImageFix"/>
<feBlend mode="normal" in="SourceGraphic" in2="BackgroundImageFix" result="shape"/>
<feGaussianBlur stdDeviation="28" result="effect1_foregroundBlur_2002_128"/>
</filter>
<filter id="filter1_f_2002_128" x="260" y="253" width="504" height="504" filterUnits="userSpaceOnUse" color-interpolation-filters="sRGB">
<feFlood flood-opacity="0" result="BackgroundImageFix"/>
<feBlend mode="normal" in="SourceGraphic" in2="BackgroundImageFix" result="shape"/>
<feGaussianBlur stdDeviation="14" result="effect1_foregroundBlur_2002_128"/>
</filter>
<filter id="filter2_f_2002_128" x="274" y="267" width="476" height="476" filterUnits="userSpaceOnUse" color-interpolation-filters="sRGB">
<feFlood flood-opacity="0" result="BackgroundImageFix"/>
<feBlend mode="normal" in="SourceGraphic" in2="BackgroundImageFix" result="shape"/>
<feGaussianBlur stdDeviation="7" result="effect1_foregroundBlur_2002_128"/>
</filter>
<filter id="filter3_f_2002_128" x="281" y="274" width="462" height="462" filterUnits="userSpaceOnUse" color-interpolation-filters="sRGB">
<feFlood flood-opacity="0" result="BackgroundImageFix"/>
<feBlend mode="normal" in="SourceGraphic" in2="BackgroundImageFix" result="shape"/>
<feGaussianBlur stdDeviation="3.5" result="effect1_foregroundBlur_2002_128"/>
</filter>
<clipPath id="clip0_2002_128">
<rect width="1024" height="1024" fill="white"/>
</clipPath>
</defs>
</svg>
