<svg xmlns="http://www.w3.org/2000/svg" height="20px" viewBox="0 -960 960 960" width="20px" fill="#FFFFFF"><path d="M360-240v-72h456v72H360Zm0-204v-72h456v72H360Zm0-204v-72h456v72H360ZM215.79-204Q186-204 165-225.21t-21-51Q144-306 165.21-327t51-21Q246-348 267-326.79t21 51Q288-246 266.79-225t-51 21Zm0-204Q186-408 165-429.21t-21-51Q144-510 165.21-531t51-21Q246-552 267-530.79t21 51Q288-450 266.79-429t-51 21ZM165-633.21q-21-21.21-21-51T165.21-735q21.21-21 51-21T267-734.79q21 21.21 21 51T266.79-633q-21.21 21-51 21T165-633.21Z"/></svg>