<svg xmlns="http://www.w3.org/2000/svg" height="20px" viewBox="0 -960 960 960" width="20px" fill="#FFFFFF"><path d="M349.5-298.29q10.5-10.29 10.5-25.5t-10.29-25.71q-10.29-10.5-25.5-10.5t-25.71 10.29q-10.5 10.29-10.5 25.5t10.29 25.71q10.29 10.5 25.5 10.5t25.71-10.29Zm0-156q10.5-10.29 10.5-25.5t-10.29-25.71q-10.29-10.5-25.5-10.5t-25.71 10.29q-10.5 10.29-10.5 25.5t10.29 25.71q10.29 10.5 25.5 10.5t25.71-10.29Zm0-156q10.5-10.29 10.5-25.5t-10.29-25.71q-10.29-10.5-25.5-10.5t-25.71 10.29q-10.5 10.29-10.5 25.5t10.29 25.71q10.29 10.5 25.5 10.5t25.71-10.29ZM432-288h240v-72H432v72Zm0-156h240v-72H432v72Zm0-156h240v-72H432v72ZM216-144q-29.7 0-50.85-21.15Q144-186.3 144-216v-528q0-29.7 21.15-50.85Q186.3-816 216-816h528q29.7 0 50.85 21.15Q816-773.7 816-744v528q0 29.7-21.15 50.85Q773.7-144 744-144H216Zm0-72h528v-528H216v528Zm0-528v528-528Z"/></svg>